<?xml version="1.0" encoding="UTF-8" standalone="yes"?>
<svg version="1.1" id="Layer_1" xmlns="http://www.w3.org/2000/svg" xmlns:xlink="http://www.w3.org/1999/xlink" x="0px" y="0px" viewBox="0 0 272.8 315" style="enable-background:new 0 0 272.8 315;" xml:space="preserve" height="16px" width="16px">
      <style type="text/css">.st0{fill:#0F6482;}</style>
    <metadata>
            Trung Hieu
          </metadata>
    <g id="color_index_0" fill="#0f6482">
              <path d="M136.4,0L0,78.75v157.5L136.4,315l136.4-78.75V78.75L136.4,0z M267.35,152.78l-61.39-35.44V46.45l61.39,35.44&#x9;&#x9;V152.78z M197.79,41.73L69.56,115.77L8.17,80.32L136.4,6.29L197.79,41.73z M133.67,233.1l-61.39,35.44V123.63l61.39,35.44V233.1z&#x9;&#x9; M5.45,85.04l61.39,35.44v148.06L5.45,233.1V85.04z M75.01,273.26l61.39-35.44l61.39,35.44l-61.39,35.44L75.01,273.26z&#x9;&#x9; M203.24,270.12l-64.11-37.02v-77.18l-64.11-37.01l125.5-72.46v74.03l66.84,38.59v74.03L203.24,270.12z"/>
          </g>
  </svg>